<?xml version="1.0" encoding="UTF-8" standalone="no"?>
<!DOCTYPE svg PUBLIC "-//W3C//DTD SVG 1.1//EN"
 "http://www.w3.org/Graphics/SVG/1.1/DTD/svg11.dtd">
<!-- Generated by graphviz version 14.0.0 (20250921.2048)
 -->
<!-- Title: MentalMap Pages: 1 -->
<svg width="864pt" height="453pt"
 viewBox="0.00 0.00 864.00 453.00" xmlns="http://www.w3.org/2000/svg" xmlns:xlink="http://www.w3.org/1999/xlink">
<g id="graph0" class="graph" transform="scale(0.448365 0.448365) rotate(0) translate(4 1005.91)">
<title>MentalMap</title>
<polygon fill="white" stroke="none" points="-4,4 -4,-1005.91 1923,-1005.91 1923,4 -4,4"/>
<g id="clust1" class="cluster">
<title>cluster_theory</title>
<path fill="#eff6ff" stroke="#93c5fd" stroke-width="2" d="M329,-332.07C329,-332.07 581,-332.07 581,-332.07 587,-332.07 593,-338.07 593,-344.07 593,-344.07 593,-758.79 593,-758.79 593,-764.79 587,-770.79 581,-770.79 581,-770.79 329,-770.79 329,-770.79 323,-770.79 317,-764.79 317,-758.79 317,-758.79 317,-344.07 317,-344.07 317,-338.07 323,-332.07 329,-332.07"/>
<text xml:space="preserve" text-anchor="middle" x="455" y="-753.49" font-family="Arial" font-size="14.00" fill="#1e3a8a">Theory Building &amp; Evaluation</text>
<text xml:space="preserve" text-anchor="middle" x="455" y="-737.74" font-family="Arial" font-size="14.00" fill="#1e3a8a">(How we theorize)</text>
</g>
<g id="clust2" class="cluster">
<title>cluster_behavior</title>
<path fill="#f0fdf4" stroke="#86efac" stroke-width="2" d="M647,-8C647,-8 1131,-8 1131,-8 1137,-8 1143,-14 1143,-20 1143,-20 1143,-434.49 1143,-434.49 1143,-440.49 1137,-446.49 1131,-446.49 1131,-446.49 647,-446.49 647,-446.49 641,-446.49 635,-440.49 635,-434.49 635,-434.49 635,-20 635,-20 635,-14 641,-8 647,-8"/>
<text xml:space="preserve" text-anchor="middle" x="889" y="-429.19" font-family="Arial" font-size="14.00" fill="#166534">Human&#45;AI Delegation &amp; Behavior</text>
<text xml:space="preserve" text-anchor="middle" x="889" y="-413.44" font-family="Arial" font-size="14.00" fill="#166534">(How humans interact with AI)</text>
</g>
<g id="clust3" class="cluster">
<title>cluster_analytical</title>
<path fill="#fff7ed" stroke="#fdba74" stroke-width="2" d="M1473,-163.15C1473,-163.15 1899,-163.15 1899,-163.15 1905,-163.15 1911,-169.15 1911,-175.15 1911,-175.15 1911,-432.72 1911,-432.72 1911,-438.72 1905,-444.72 1899,-444.72 1899,-444.72 1473,-444.72 1473,-444.72 1467,-444.72 1461,-438.72 1461,-432.72 1461,-432.72 1461,-175.15 1461,-175.15 1461,-169.15 1467,-163.15 1473,-163.15"/>
<text xml:space="preserve" text-anchor="middle" x="1686" y="-427.42" font-family="Arial" font-size="14.00" fill="#9a3412">Analytical Modeling</text>
<text xml:space="preserve" text-anchor="middle" x="1686" y="-411.67" font-family="Arial" font-size="14.00" fill="#9a3412">(Mathematical Assumptions)</text>
</g>
<!-- CENTER -->
<g id="node1" class="node">
<title>CENTER</title>
<ellipse fill="#fde047" stroke="#eab308" stroke-width="2" cx="847" cy="-917.85" rx="84.06" ry="84.06"/>
<text xml:space="preserve" text-anchor="middle" x="847" y="-921.4" font-family="Inter, Arial, sans-serif" font-size="16.00">AI in IS Research</text>
<text xml:space="preserve" text-anchor="middle" x="847" y="-902.65" font-family="Inter, Arial, sans-serif" font-size="16.00">(The Big Picture)</text>
</g>
<!-- GREGOR -->
<g id="node2" class="node">
<title>GREGOR</title>
<path fill="#bfdbfe" stroke="#60a5fa" stroke-width="2" d="M562.02,-568.14C562.02,-568.14 389.98,-568.14 389.98,-568.14 383.98,-568.14 377.98,-562.14 377.98,-556.14 377.98,-556.14 377.98,-521.49 377.98,-521.49 377.98,-515.49 383.98,-509.49 389.98,-509.49 389.98,-509.49 562.02,-509.49 562.02,-509.49 568.02,-509.49 574.02,-515.49 574.02,-521.49 574.02,-521.49 574.02,-556.14 574.02,-556.14 574.02,-562.14 568.02,-568.14 562.02,-568.14"/>
<text xml:space="preserve" text-anchor="middle" x="476" y="-549.54" font-family="Inter, Arial, sans-serif" font-size="12.00">Gregor (2006)</text>
<text xml:space="preserve" text-anchor="middle" x="476" y="-535.29" font-family="Inter, Arial, sans-serif" font-size="12.00">5 Types of Theory</text>
<text xml:space="preserve" text-anchor="middle" x="476" y="-521.04" font-family="Inter, Arial, sans-serif" font-size="12.00">👉 (Type IV most common in IS)</text>
</g>
<!-- CENTER&#45;&gt;GREGOR -->
<!-- CENTER&#45;&gt;GREGOR -->
<g id="edge4" class="edge">
<title>CENTER&#45;&gt;GREGOR</title>
<path fill="none" stroke="#475569" stroke-width="1.5" d="M807.23,-842.99C767.4,-769.03 712,-666.14 712,-666.14 712,-666.14 643,-611.14 643,-611.14 643,-611.14 598.59,-592.17 555.58,-573.8"/>
<polygon fill="#475569" stroke="#475569" stroke-width="1.5" points="557.07,-570.63 546.5,-569.92 554.32,-577.07 557.07,-570.63"/>
<text xml:space="preserve" text-anchor="middle" x="796.42" y="-691.22" font-family="Inter, Arial, sans-serif" font-size="10.00"> WHAT is it?</text>
</g>
<!-- BJ -->
<g id="node3" class="node">
<title>BJ</title>
<path fill="#bfdbfe" stroke="#60a5fa" stroke-width="2" d="M528.77,-723.29C528.77,-723.29 337.23,-723.29 337.23,-723.29 331.23,-723.29 325.23,-717.29 325.23,-711.29 325.23,-711.29 325.23,-678.14 325.23,-678.14 325.23,-672.14 331.23,-666.14 337.23,-666.14 337.23,-666.14 528.77,-666.14 528.77,-666.14 534.77,-666.14 540.77,-672.14 540.77,-678.14 540.77,-678.14 540.77,-711.29 540.77,-711.29 540.77,-717.29 534.77,-723.29 528.77,-723.29"/>
<text xml:space="preserve" text-anchor="middle" x="433" y="-704.69" font-family="Inter, Arial, sans-serif" font-size="12.00">Burton&#45;Jones (2021)</text>
<text xml:space="preserve" text-anchor="middle" x="433" y="-690.44" font-family="Inter, Arial, sans-serif" font-size="12.00">4 Shifts in Theorizing</text>
<text xml:space="preserve" text-anchor="middle" x="433" y="-676.19" font-family="Inter, Arial, sans-serif" font-size="12.00">(Truth→Lens, Desk→Engagement)</text>
</g>
<!-- CENTER&#45;&gt;BJ -->
<g id="edge5" class="edge">
<title>CENTER&#45;&gt;BJ</title>
<path fill="none" stroke="#475569" stroke-width="1.5" d="M768.09,-887.14C669.13,-849.87 512.25,-790.79 512.25,-790.79 512.25,-790.79 486.54,-759.95 464.41,-733.4"/>
<polygon fill="#475569" stroke="#475569" stroke-width="1.5" points="467.32,-731.43 458.23,-725.99 461.95,-735.91 467.32,-731.43"/>
<text xml:space="preserve" text-anchor="middle" x="548.62" y="-781.29" font-family="Inter, Arial, sans-serif" font-size="10.00"> HOW is it built?</text>
</g>
<!-- SARKER -->
<g id="node4" class="node">
<title>SARKER</title>
<path fill="#bfdbfe" stroke="#60a5fa" stroke-width="2" d="M572.9,-397.22C572.9,-397.22 337.1,-397.22 337.1,-397.22 331.1,-397.22 325.1,-391.22 325.1,-385.22 325.1,-385.22 325.1,-352.07 325.1,-352.07 325.1,-346.07 331.1,-340.07 337.1,-340.07 337.1,-340.07 572.9,-340.07 572.9,-340.07 578.9,-340.07 584.9,-346.07 584.9,-352.07 584.9,-352.07 584.9,-385.22 584.9,-385.22 584.9,-391.22 578.9,-397.22 572.9,-397.22"/>
<text xml:space="preserve" text-anchor="middle" x="455" y="-378.62" font-family="Inter, Arial, sans-serif" font-size="12.00">Sarker et al. (2019)</text>
<text xml:space="preserve" text-anchor="middle" x="455" y="-364.37" font-family="Inter, Arial, sans-serif" font-size="12.00">Sociotechnical Continuum</text>
<text xml:space="preserve" text-anchor="middle" x="455" y="-350.12" font-family="Inter, Arial, sans-serif" font-size="12.00">(5 Positions: Tech&#45;centric to Human&#45;centric)</text>
</g>
<!-- CENTER&#45;&gt;SARKER -->
<g id="edge6" class="edge">
<title>CENTER&#45;&gt;SARKER</title>
<path fill="none" stroke="#475569" stroke-width="1.5" d="M844.32,-833.02C842,-760.14 839,-666.14 839,-666.14 839,-666.14 620,-454.49 620,-454.49 620,-454.49 567.15,-427.31 521.27,-403.72"/>
<polygon fill="#475569" stroke="#475569" stroke-width="1.5" points="522.91,-400.63 512.42,-399.17 519.71,-406.86 522.91,-400.63"/>
<text xml:space="preserve" text-anchor="middle" x="839.93" y="-613.64" font-family="Inter, Arial, sans-serif" font-size="10.00"> WHERE does it sit?</text>
</g>
<!-- BAIRD -->
<g id="node5" class="node">
<title>BAIRD</title>
<path fill="#bbf7d0" stroke="#4ade80" stroke-width="2" d="M860.52,-228.3C860.52,-228.3 655.48,-228.3 655.48,-228.3 649.48,-228.3 643.48,-222.3 643.48,-216.3 643.48,-216.3 643.48,-183.15 643.48,-183.15 643.48,-177.15 649.48,-171.15 655.48,-171.15 655.48,-171.15 860.52,-171.15 860.52,-171.15 866.52,-171.15 872.52,-177.15 872.52,-183.15 872.52,-183.15 872.52,-216.3 872.52,-216.3 872.52,-222.3 866.52,-228.3 860.52,-228.3"/>
<text xml:space="preserve" text-anchor="middle" x="758" y="-209.7" font-family="Inter, Arial, sans-serif" font-size="12.00">Baird &amp; Maruping (2021)</text>
<text xml:space="preserve" text-anchor="middle" x="758" y="-195.45" font-family="Inter, Arial, sans-serif" font-size="12.00">4 Archetypes &amp; 3 Mechanisms</text>
<text xml:space="preserve" text-anchor="middle" x="758" y="-181.2" font-family="Inter, Arial, sans-serif" font-size="12.00">(Appraisal, Distribution, Coordination)</text>
</g>
<!-- CENTER&#45;&gt;BAIRD -->
<!-- CENTER&#45;&gt;BAIRD -->
<g id="edge7" class="edge">
<title>CENTER&#45;&gt;BAIRD</title>
<path fill="none" stroke="#475569" stroke-width="1.5" d="M765.26,-894.9C613.4,-854.13 303,-770.79 303,-770.79 303,-770.79 216,-568.14 216,-568.14 216,-568.14 216,-509.49 216,-509.49 216,-509.49 303,-332.07 303,-332.07 303,-332.07 465,-271.3 465,-271.3 465,-271.3 551.87,-250.38 631.01,-231.31"/>
<polygon fill="#475569" stroke="#475569" stroke-width="1.5" points="631.51,-234.79 640.41,-229.05 629.87,-227.99 631.51,-234.79"/>
<text xml:space="preserve" text-anchor="middle" x="259.5" y="-535.32" font-family="Inter, Arial, sans-serif" font-size="10.00"> Agency Framework</text>
</g>
<!-- ZHANG -->
<g id="node6" class="node">
<title>ZHANG</title>
<path fill="#bbf7d0" stroke="#4ade80" stroke-width="2" d="M1123.03,-397.22C1123.03,-397.22 968.98,-397.22 968.98,-397.22 962.98,-397.22 956.98,-391.22 956.98,-385.22 956.98,-385.22 956.98,-352.07 956.98,-352.07 956.98,-346.07 962.98,-340.07 968.98,-340.07 968.98,-340.07 1123.03,-340.07 1123.03,-340.07 1129.03,-340.07 1135.03,-346.07 1135.03,-352.07 1135.03,-352.07 1135.03,-385.22 1135.03,-385.22 1135.03,-391.22 1129.03,-397.22 1123.03,-397.22"/>
<text xml:space="preserve" text-anchor="middle" x="1046" y="-378.62" font-family="Inter, Arial, sans-serif" font-size="12.00">Zhang (2013)</text>
<text xml:space="preserve" text-anchor="middle" x="1046" y="-364.37" font-family="Inter, Arial, sans-serif" font-size="12.00">Affective Response Model</text>
<text xml:space="preserve" text-anchor="middle" x="1046" y="-350.12" font-family="Inter, Arial, sans-serif" font-size="12.00">(Cognitive + Affective paths)</text>
</g>
<!-- CENTER&#45;&gt;ZHANG -->
<g id="edge8" class="edge">
<title>CENTER&#45;&gt;ZHANG</title>
<path fill="none" stroke="#475569" stroke-width="1.5" d="M903.98,-854.93C933.32,-823.05 963,-790.79 963,-790.79 963,-790.79 1025,-623.14 1025,-623.14 1025,-623.14 1036.75,-481.29 1042.67,-409.81"/>
<polygon fill="#475569" stroke="#475569" stroke-width="1.5" points="1046.15,-410.26 1043.48,-400 1039.17,-409.68 1046.15,-410.26"/>
<text xml:space="preserve" text-anchor="middle" x="1070.23" y="-613.64" font-family="Inter, Arial, sans-serif" font-size="10.00"> Human Psychology</text>
</g>
<!-- MR -->
<g id="node9" class="node">
<title>MR</title>
<path fill="#fed7aa" stroke="#fb923c" stroke-width="2" d="M1632.53,-397.22C1632.53,-397.22 1481.47,-397.22 1481.47,-397.22 1475.47,-397.22 1469.47,-391.22 1469.47,-385.22 1469.47,-385.22 1469.47,-352.07 1469.47,-352.07 1469.47,-346.07 1475.47,-340.07 1481.47,-340.07 1481.47,-340.07 1632.53,-340.07 1632.53,-340.07 1638.53,-340.07 1644.53,-346.07 1644.53,-352.07 1644.53,-352.07 1644.53,-385.22 1644.53,-385.22 1644.53,-391.22 1638.53,-397.22 1632.53,-397.22"/>
<text xml:space="preserve" text-anchor="middle" x="1557" y="-378.62" font-family="Inter, Arial, sans-serif" font-size="12.00">Markus &amp; Robey (1988)</text>
<text xml:space="preserve" text-anchor="middle" x="1557" y="-364.37" font-family="Inter, Arial, sans-serif" font-size="12.00">3 Imperatives</text>
<text xml:space="preserve" text-anchor="middle" x="1557" y="-350.12" font-family="Inter, Arial, sans-serif" font-size="12.00">(Tech vs. Org vs. Emergent)</text>
</g>
<!-- CENTER&#45;&gt;MR -->
<!-- CENTER&#45;&gt;MR -->
<g id="edge9" class="edge">
<title>CENTER&#45;&gt;MR</title>
<path fill="none" stroke="#475569" stroke-width="1.5" d="M923.07,-880.18C1012.82,-836.92 1150,-770.79 1150,-770.79 1150,-770.79 1385,-568.14 1385,-568.14 1385,-568.14 1484,-466.49 1484,-466.49 1484,-466.49 1507.76,-434.96 1528.17,-407.89"/>
<polygon fill="#475569" stroke="#475569" stroke-width="1.5" points="1530.9,-410.08 1534.13,-399.99 1525.31,-405.87 1530.9,-410.08"/>
<text xml:space="preserve" text-anchor="middle" x="1380.74" y="-613.64" font-family="Inter, Arial, sans-serif" font-size="10.00"> Causal Assumptions</text>
</g>
<!-- CG -->
<g id="node10" class="node">
<title>CG</title>
<path fill="#fed7aa" stroke="#fb923c" stroke-width="2" d="M1891.28,-397.22C1891.28,-397.22 1714.72,-397.22 1714.72,-397.22 1708.72,-397.22 1702.72,-391.22 1702.72,-385.22 1702.72,-385.22 1702.72,-352.07 1702.72,-352.07 1702.72,-346.07 1708.72,-340.07 1714.72,-340.07 1714.72,-340.07 1891.28,-340.07 1891.28,-340.07 1897.28,-340.07 1903.28,-346.07 1903.28,-352.07 1903.28,-352.07 1903.28,-385.22 1903.28,-385.22 1903.28,-391.22 1897.28,-397.22 1891.28,-397.22"/>
<text xml:space="preserve" text-anchor="middle" x="1803" y="-378.62" font-family="Inter, Arial, sans-serif" font-size="12.00">Chen &amp; Guo (2022)</text>
<text xml:space="preserve" text-anchor="middle" x="1803" y="-364.37" font-family="Inter, Arial, sans-serif" font-size="12.00">Platform Game Theory</text>
<text xml:space="preserve" text-anchor="middle" x="1803" y="-350.12" font-family="Inter, Arial, sans-serif" font-size="12.00">(Strategic interactions, Nash Eq)</text>
</g>
<!-- CENTER&#45;&gt;CG -->
<g id="edge10" class="edge">
<title>CENTER&#45;&gt;CG</title>
<path fill="none" stroke="#475569" stroke-width="1.5" d="M926.44,-888.34C1044.88,-845.84 1254,-770.79 1254,-770.79 1254,-770.79 1619.99,-503.37 1754.32,-405.22"/>
<polygon fill="#475569" stroke="#475569" stroke-width="1.5" points="1756.11,-408.24 1762.12,-399.51 1751.99,-402.59 1756.11,-408.24"/>
<text xml:space="preserve" text-anchor="middle" x="1521.73" y="-613.64" font-family="Inter, Arial, sans-serif" font-size="10.00"> Multi&#45;Agent Dynamics</text>
</g>
<!-- GREGOR&#45;&gt;SARKER -->
<g id="edge11" class="edge">
<title>GREGOR&#45;&gt;SARKER</title>
<path fill="none" stroke="#64748b" stroke-width="1.5" d="M472.34,-508.52C468.93,-481.23 463.82,-440.29 460.03,-409.93"/>
<polygon fill="#64748b" stroke="#64748b" stroke-width="1.5" points="463.54,-409.78 458.83,-400.3 456.59,-410.65 463.54,-409.78"/>
<text xml:space="preserve" text-anchor="middle" x="536.51" y="-456.99" font-family="Inter, Arial, sans-serif" font-size="10.00"> Types roughly map to Positions</text>
</g>
<!-- LIU -->
<g id="node7" class="node">
<title>LIU</title>
<path fill="#bbf7d0" stroke="#4ade80" stroke-width="2" d="M842.9,-73.15C842.9,-73.15 673.1,-73.15 673.1,-73.15 667.1,-73.15 661.1,-67.15 661.1,-61.15 661.1,-61.15 661.1,-28 661.1,-28 661.1,-22 667.1,-16 673.1,-16 673.1,-16 842.9,-16 842.9,-16 848.9,-16 854.9,-22 854.9,-28 854.9,-28 854.9,-61.15 854.9,-61.15 854.9,-67.15 848.9,-73.15 842.9,-73.15"/>
<text xml:space="preserve" text-anchor="middle" x="758" y="-54.55" font-family="Inter, Arial, sans-serif" font-size="12.00">Liu et al. (2025)</text>
<text xml:space="preserve" text-anchor="middle" x="758" y="-40.3" font-family="Inter, Arial, sans-serif" font-size="12.00">Empirical Delegation States</text>
<text xml:space="preserve" text-anchor="middle" x="758" y="-26.05" font-family="Inter, Arial, sans-serif" font-size="12.00">(Low 9%, Med 18%, High 94%)</text>
</g>
<!-- GREGOR&#45;&gt;LIU -->
<g id="edge19" class="edge">
<title>GREGOR&#45;&gt;LIU</title>
<path fill="none" stroke="#dc2626" stroke-width="2" stroke-dasharray="5,2" d="M418.55,-508.67C365.87,-481.94 296,-446.49 296,-446.49 296,-446.49 296,-332.07 296,-332.07 296,-332.07 309.75,-271.3 309.75,-271.3 309.75,-271.3 565.1,-142.71 690.34,-79.64"/>
<polygon fill="#dc2626" stroke="#dc2626" stroke-width="2" points="691.62,-82.92 698.98,-75.3 688.47,-76.67 691.62,-82.92"/>
<text xml:space="preserve" text-anchor="middle" x="387.38" y="-279.8" font-family="Inter, Arial, sans-serif" font-size="10.00" fill="#b91c1c"> Liu = Type IV (Explains + Predicts)</text>
</g>
<!-- GUPTA -->
<g id="node11" class="node">
<title>GUPTA</title>
<path fill="#fed7aa" stroke="#fb923c" stroke-width="2" d="M1712.53,-228.3C1712.53,-228.3 1525.47,-228.3 1525.47,-228.3 1519.47,-228.3 1513.47,-222.3 1513.47,-216.3 1513.47,-216.3 1513.47,-183.15 1513.47,-183.15 1513.47,-177.15 1519.47,-171.15 1525.47,-171.15 1525.47,-171.15 1712.53,-171.15 1712.53,-171.15 1718.53,-171.15 1724.53,-177.15 1724.53,-183.15 1724.53,-183.15 1724.53,-216.3 1724.53,-216.3 1724.53,-222.3 1718.53,-228.3 1712.53,-228.3"/>
<text xml:space="preserve" text-anchor="middle" x="1619" y="-209.7" font-family="Inter, Arial, sans-serif" font-size="12.00">Gupta / Fügener et al. (2026)</text>
<text xml:space="preserve" text-anchor="middle" x="1619" y="-195.45" font-family="Inter, Arial, sans-serif" font-size="12.00">Human&#45;AI Complementarity</text>
<text xml:space="preserve" text-anchor="middle" x="1619" y="-181.2" font-family="Inter, Arial, sans-serif" font-size="12.00">(OR Optimization, Task Allocation)</text>
</g>
<!-- GREGOR&#45;&gt;GUPTA -->
<g id="edge21" class="edge">
<title>GREGOR&#45;&gt;GUPTA</title>
<path fill="none" stroke="#dc2626" stroke-width="2" stroke-dasharray="5,2" d="M575.02,-524.54C763.9,-499.21 1157,-446.49 1157,-446.49 1157,-446.49 1279.5,-332.07 1279.5,-332.07 1279.5,-332.07 1629,-295.3 1629,-295.3 1629,-295.3 1629,-271.3 1629,-271.3 1629,-271.3 1627,-257.2 1624.79,-241.61"/>
<polygon fill="#dc2626" stroke="#dc2626" stroke-width="2" points="1628.3,-241.43 1623.43,-232.02 1621.37,-242.41 1628.3,-241.43"/>
<text xml:space="preserve" text-anchor="middle" x="1359.75" y="-365.15" font-family="Inter, Arial, sans-serif" font-size="10.00" fill="#b91c1c"> Analytical models = Usually Type IV</text>
</g>
<!-- BJ&#45;&gt;GREGOR -->
<g id="edge12" class="edge">
<title>BJ&#45;&gt;GREGOR</title>
<path fill="none" stroke="#64748b" stroke-width="1.5" d="M430.79,-665.42C429.26,-645.78 427.5,-623.14 427.5,-623.14 427.5,-623.14 427.5,-611.14 427.5,-611.14 427.5,-611.14 438.22,-595.37 449.59,-578.66"/>
<polygon fill="#64748b" stroke="#64748b" stroke-width="1.5" points="452.27,-580.94 455,-570.7 446.48,-577 452.27,-580.94"/>
<text xml:space="preserve" text-anchor="middle" x="506.25" y="-613.64" font-family="Inter, Arial, sans-serif" font-size="10.00"> Evaluates the theory representation</text>
</g>
<!-- SARKER&#45;&gt;BAIRD -->
<g id="edge18" class="edge">
<title>SARKER&#45;&gt;BAIRD</title>
<path fill="none" stroke="#dc2626" stroke-width="2" stroke-dasharray="5,2" d="M464.35,-339.26C473.72,-310.84 486.75,-271.3 486.75,-271.3 486.75,-271.3 563.98,-251.21 636.02,-232.46"/>
<polygon fill="#dc2626" stroke="#dc2626" stroke-width="2" points="636.73,-235.89 645.52,-229.99 634.97,-229.12 636.73,-235.89"/>
<text xml:space="preserve" text-anchor="middle" x="586.88" y="-279.8" font-family="Inter, Arial, sans-serif" font-size="10.00" fill="#b91c1c"> Prescriptive Archetype = Balanced Position 3</text>
</g>
<!-- BAIRD&#45;&gt;LIU -->
<g id="edge14" class="edge">
<title>BAIRD&#45;&gt;LIU</title>
<path fill="none" stroke="#64748b" stroke-width="1.5" d="M758,-170.28C758,-146.6 758,-112.61 758,-86.1"/>
<polygon fill="#64748b" stroke="#64748b" stroke-width="1.5" points="761.5,-86.4 758,-76.4 754.5,-86.4 761.5,-86.4"/>
<text xml:space="preserve" text-anchor="middle" x="828.5" y="-118.65" font-family="Inter, Arial, sans-serif" font-size="10.00"> Liu empirically tests archetypes</text>
</g>
<!-- ZHANG&#45;&gt;BAIRD -->
<g id="edge13" class="edge">
<title>ZHANG&#45;&gt;BAIRD</title>
<path fill="none" stroke="#64748b" stroke-width="1.5" d="M978.42,-339.26C930.16,-318.99 873.75,-295.3 873.75,-295.3 873.75,-295.3 834.88,-263.54 802.19,-236.83"/>
<polygon fill="#64748b" stroke="#64748b" stroke-width="1.5" points="804.45,-234.15 794.49,-230.54 800.02,-239.57 804.45,-234.15"/>
<text xml:space="preserve" text-anchor="middle" x="949.88" y="-279.8" font-family="Inter, Arial, sans-serif" font-size="10.00"> Affect directly influences Appraisal</text>
</g>
<!-- ZHANG&#45;&gt;GUPTA -->
<g id="edge22" class="edge">
<title>ZHANG&#45;&gt;GUPTA</title>
<path fill="none" stroke="#dc2626" stroke-width="2" stroke-dasharray="5,2" d="M1135.82,-343.62C1159.71,-337.23 1179,-332.07 1179,-332.07 1179,-332.07 1324,-295.3 1324,-295.3 1324,-295.3 1377.5,-271.3 1377.5,-271.3 1377.5,-271.3 1445.41,-251.45 1509.2,-232.81"/>
<polygon fill="#dc2626" stroke="#dc2626" stroke-width="2" points="1509.95,-236.24 1518.56,-230.08 1507.98,-229.52 1509.95,-236.24"/>
<text xml:space="preserve" text-anchor="middle" x="1498.25" y="-279.8" font-family="Inter, Arial, sans-serif" font-size="10.00" fill="#b91c1c"> Affective parameters (fear) can alter math assumptions</text>
</g>
<!-- TRUST -->
<g id="node8" class="node">
<title>TRUST</title>
<path fill="#fef08a" stroke="#facc15" stroke-width="2" d="M783.4,-338.39C783.4,-338.39 790.23,-338.54 790.23,-338.54 790.49,-338.54 791.01,-338.56 791.27,-338.57 791.27,-338.57 798.02,-338.78 798.02,-338.78 798.28,-338.79 798.8,-338.81 799.06,-338.82 799.06,-338.82 805.69,-339.11 805.69,-339.11 805.95,-339.12 806.47,-339.14 806.73,-339.16 806.73,-339.16 813.22,-339.51 813.22,-339.51 813.48,-339.53 814,-339.56 814.26,-339.57 814.26,-339.57 820.58,-340 820.58,-340 820.84,-340.01 821.36,-340.05 821.62,-340.07 821.62,-340.07 827.73,-340.56 827.73,-340.56 827.99,-340.58 828.51,-340.62 828.77,-340.65 828.77,-340.65 834.65,-341.2 834.65,-341.2 834.91,-341.22 835.43,-341.27 835.69,-341.3 835.69,-341.3 841.32,-341.91 841.32,-341.91 841.57,-341.94 842.09,-342 842.35,-342.03 842.35,-342.03 847.7,-342.7 847.7,-342.7 847.96,-342.73 848.47,-342.8 848.73,-342.84 848.73,-342.84 853.77,-343.55 853.77,-343.55 854.03,-343.59 854.55,-343.67 854.8,-343.71 854.8,-343.71 859.52,-344.48 859.52,-344.48 859.78,-344.52 860.29,-344.61 860.55,-344.66 860.55,-344.66 864.93,-345.47 864.93,-345.47 865.18,-345.52 865.7,-345.62 865.95,-345.67 865.95,-345.67 869.97,-346.52 869.97,-346.52 870.23,-346.57 870.73,-346.69 870.99,-346.75 870.99,-346.75 874.64,-347.63 874.64,-347.63 874.89,-347.69 875.39,-347.82 875.65,-347.89 875.65,-347.89 878.91,-348.79 878.91,-348.79 879.16,-348.86 879.66,-349.01 879.91,-349.09 879.91,-349.09 882.79,-350.01 882.79,-350.01 883.04,-350.09 883.53,-350.26 883.77,-350.35 883.77,-350.35 886.26,-351.27 886.26,-351.27 886.5,-351.36 886.99,-351.56 887.23,-351.66 887.23,-351.66 889.32,-352.58 889.32,-352.58 889.56,-352.68 890.03,-352.91 890.26,-353.03 890.26,-353.03 891.96,-353.92 891.96,-353.92 892.19,-354.04 892.64,-354.3 892.86,-354.44 892.86,-354.44 894.19,-355.3 894.19,-355.3 894.41,-355.44 894.83,-355.74 895.03,-355.91 895.03,-355.91 896.01,-356.7 896.01,-356.7 896.21,-356.86 896.59,-357.22 896.77,-357.41 896.77,-357.41 897.43,-358.13 897.43,-358.13 897.6,-358.32 897.92,-358.73 898.06,-358.95 898.06,-358.95 898.46,-359.58 898.46,-359.58 898.6,-359.8 898.82,-360.27 898.91,-360.51 898.91,-360.51 899.11,-361.07 899.11,-361.07 899.19,-361.31 899.31,-361.82 899.33,-362.08 899.33,-362.08 899.38,-362.6 899.38,-362.6 899.4,-362.85 899.39,-363.37 899.35,-363.63 899.35,-363.63 899.27,-364.17 899.27,-364.17 899.23,-364.43 899.09,-364.93 899,-365.17 899,-365.17 898.75,-365.78 898.75,-365.78 898.66,-366.02 898.43,-366.48 898.29,-366.71 898.29,-366.71 897.85,-367.41 897.85,-367.41 897.71,-367.63 897.41,-368.05 897.24,-368.25 897.24,-368.25 896.57,-369.04 896.57,-369.04 896.4,-369.24 896.05,-369.62 895.86,-369.8 895.86,-369.8 894.94,-370.67 894.94,-370.67 894.75,-370.85 894.36,-371.19 894.15,-371.35 894.15,-371.35 892.97,-372.28 892.97,-372.28 892.76,-372.45 892.34,-372.75 892.13,-372.9 892.13,-372.9 890.68,-373.88 890.68,-373.88 890.47,-374.03 890.03,-374.31 889.81,-374.44 889.81,-374.44 888.11,-375.46 888.11,-375.46 887.88,-375.6 887.43,-375.85 887.2,-375.98 887.2,-375.98 885.25,-377.02 885.25,-377.02 885.02,-377.14 884.56,-377.38 884.32,-377.49 884.32,-377.49 882.14,-378.55 882.14,-378.55 881.9,-378.66 881.43,-378.88 881.19,-378.99 881.19,-378.99 878.79,-380.05 878.79,-380.05 878.55,-380.16 878.07,-380.36 877.83,-380.46 877.83,-380.46 875.22,-381.52 875.22,-381.52 874.97,-381.62 874.49,-381.81 874.25,-381.9 874.25,-381.9 871.44,-382.95 871.44,-382.95 871.2,-383.04 870.71,-383.22 870.46,-383.3 870.46,-383.3 867.48,-384.34 867.48,-384.34 867.23,-384.42 866.74,-384.59 866.49,-384.67 866.49,-384.67 863.34,-385.68 863.34,-385.68 863.1,-385.76 862.6,-385.91 862.35,-385.99 862.35,-385.99 859.06,-386.98 859.06,-386.98 858.81,-387.05 858.31,-387.19 858.06,-387.26 858.06,-387.26 854.63,-388.22 854.63,-388.22 854.38,-388.29 853.88,-388.43 853.63,-388.49 853.63,-388.49 850.08,-389.41 850.08,-389.41 849.83,-389.48 849.33,-389.6 849.07,-389.66 849.07,-389.66 845.42,-390.54 845.42,-390.54 845.17,-390.6 844.66,-390.72 844.41,-390.78 844.41,-390.78 840.66,-391.61 840.66,-391.61 840.41,-391.67 839.9,-391.78 839.65,-391.83 839.65,-391.83 835.82,-392.62 835.82,-392.62 835.56,-392.68 835.05,-392.78 834.8,-392.83 834.8,-392.83 830.9,-393.57 830.9,-393.57 830.64,-393.61 830.13,-393.71 829.88,-393.75 829.88,-393.75 825.92,-394.44 825.92,-394.44 825.66,-394.48 825.15,-394.57 824.89,-394.61 824.89,-394.61 820.88,-395.24 820.88,-395.24 820.62,-395.28 820.11,-395.36 819.85,-395.4 819.85,-395.4 815.79,-395.97 815.79,-395.97 815.53,-396.01 815.02,-396.08 814.76,-396.11 814.76,-396.11 810.66,-396.63 810.66,-396.63 810.41,-396.66 809.89,-396.72 809.63,-396.75 809.63,-396.75 805.51,-397.2 805.51,-397.2 805.25,-397.23 804.73,-397.28 804.47,-397.31 804.47,-397.31 800.32,-397.7 800.32,-397.7 800.06,-397.73 799.54,-397.77 799.28,-397.79 799.28,-397.79 795.11,-398.12 795.11,-398.12 794.85,-398.14 794.33,-398.18 794.07,-398.2 794.07,-398.2 789.88,-398.46 789.88,-398.46 789.63,-398.48 789.11,-398.5 788.85,-398.52 788.85,-398.52 784.65,-398.72 784.65,-398.72 784.39,-398.73 783.87,-398.75 783.61,-398.76 783.61,-398.76 779.4,-398.89 779.4,-398.89 779.14,-398.9 778.62,-398.91 778.36,-398.92 778.36,-398.92 774.15,-398.98 774.15,-398.98 773.89,-398.99 773.37,-398.99 773.11,-398.99 773.11,-398.99 768.89,-398.99 768.89,-398.99 768.63,-398.99 768.11,-398.99 767.85,-398.98 767.85,-398.98 763.64,-398.92 763.64,-398.92 763.38,-398.91 762.86,-398.9 762.6,-398.89 762.6,-398.89 758.39,-398.76 758.39,-398.76 758.13,-398.75 757.61,-398.73 757.35,-398.72 757.35,-398.72 753.15,-398.52 753.15,-398.52 752.89,-398.5 752.37,-398.48 752.12,-398.46 752.12,-398.46 747.93,-398.2 747.93,-398.2 747.67,-398.18 747.15,-398.14 746.89,-398.12 746.89,-398.12 742.72,-397.79 742.72,-397.79 742.46,-397.77 741.94,-397.73 741.68,-397.7 741.68,-397.7 737.53,-397.31 737.53,-397.31 737.27,-397.28 736.75,-397.23 736.49,-397.2 736.49,-397.2 732.37,-396.75 732.37,-396.75 732.11,-396.72 731.59,-396.66 731.34,-396.63 731.34,-396.63 727.24,-396.11 727.24,-396.11 726.98,-396.08 726.47,-396.01 726.21,-395.97 726.21,-395.97 722.15,-395.4 722.15,-395.4 721.89,-395.36 721.38,-395.28 721.12,-395.24 721.12,-395.24 717.11,-394.61 717.11,-394.61 716.85,-394.57 716.34,-394.48 716.08,-394.44 716.08,-394.44 712.12,-393.75 712.12,-393.75 711.87,-393.71 711.36,-393.61 711.1,-393.57 711.1,-393.57 707.2,-392.83 707.2,-392.83 706.95,-392.78 706.44,-392.68 706.18,-392.62 706.18,-392.62 702.35,-391.83 702.35,-391.83 702.1,-391.78 701.59,-391.67 701.34,-391.61 701.34,-391.61 697.59,-390.78 697.59,-390.78 697.34,-390.72 696.83,-390.6 696.58,-390.54 696.58,-390.54 692.93,-389.66 692.93,-389.66 692.67,-389.6 692.17,-389.48 691.92,-389.41 691.92,-389.41 688.37,-388.49 688.37,-388.49 688.12,-388.43 687.62,-388.29 687.37,-388.22 687.37,-388.22 683.94,-387.26 683.94,-387.26 683.69,-387.19 683.19,-387.05 682.94,-386.98 682.94,-386.98 679.65,-385.99 679.65,-385.99 679.4,-385.91 678.9,-385.76 678.66,-385.68 678.66,-385.68 675.51,-384.67 675.51,-384.67 675.26,-384.59 674.77,-384.42 674.52,-384.34 674.52,-384.34 671.54,-383.3 671.54,-383.3 671.29,-383.22 670.8,-383.04 670.56,-382.95 670.56,-382.95 667.75,-381.9 667.75,-381.9 667.51,-381.81 667.03,-381.62 666.78,-381.52 666.78,-381.52 664.17,-380.46 664.17,-380.46 663.93,-380.36 663.45,-380.16 663.21,-380.05 663.21,-380.05 660.81,-378.99 660.81,-378.99 660.57,-378.88 660.1,-378.66 659.86,-378.55 659.86,-378.55 657.68,-377.49 657.68,-377.49 657.44,-377.38 656.98,-377.14 656.75,-377.02 656.75,-377.02 654.8,-375.98 654.8,-375.98 654.57,-375.85 654.12,-375.6 653.89,-375.46 653.89,-375.46 652.19,-374.44 652.19,-374.44 651.97,-374.31 651.53,-374.03 651.32,-373.88 651.32,-373.88 649.87,-372.9 649.87,-372.9 649.66,-372.75 649.24,-372.45 649.03,-372.28 649.03,-372.28 647.85,-371.35 647.85,-371.35 647.64,-371.19 647.25,-370.85 647.06,-370.67 647.06,-370.67 646.14,-369.8 646.14,-369.8 645.95,-369.62 645.6,-369.24 645.43,-369.04 645.43,-369.04 644.76,-368.25 644.76,-368.25 644.59,-368.05 644.29,-367.63 644.15,-367.41 644.15,-367.41 643.71,-366.71 643.71,-366.71 643.57,-366.48 643.34,-366.02 643.25,-365.78 643.25,-365.78 643,-365.17 643,-365.17 642.91,-364.93 642.77,-364.43 642.73,-364.17 642.73,-364.17 642.65,-363.63 642.65,-363.63 642.61,-363.37 642.6,-362.85 642.62,-362.6 642.62,-362.6 642.67,-362.08 642.67,-362.08 642.69,-361.82 642.81,-361.31 642.89,-361.07 642.89,-361.07 643.09,-360.51 643.09,-360.51 643.18,-360.27 643.4,-359.8 643.54,-359.58 643.54,-359.58 643.94,-358.95 643.94,-358.95 644.08,-358.73 644.4,-358.32 644.57,-358.13 644.57,-358.13 645.23,-357.41 645.23,-357.41 645.41,-357.22 645.79,-356.86 645.99,-356.7 645.99,-356.7 646.97,-355.91 646.97,-355.91 647.17,-355.74 647.59,-355.44 647.81,-355.3 647.81,-355.3 649.14,-354.44 649.14,-354.44 649.36,-354.3 649.81,-354.04 650.04,-353.92 650.04,-353.92 651.74,-353.03 651.74,-353.03 651.97,-352.91 652.44,-352.68 652.68,-352.58 652.68,-352.58 654.77,-351.66 654.77,-351.66 655.01,-351.56 655.5,-351.36 655.74,-351.27 655.74,-351.27 658.23,-350.35 658.23,-350.35 658.47,-350.26 658.96,-350.09 659.21,-350.01 659.21,-350.01 662.09,-349.09 662.09,-349.09 662.34,-349.01 662.84,-348.86 663.09,-348.79 663.09,-348.79 666.35,-347.89 666.35,-347.89 666.61,-347.82 667.11,-347.69 667.36,-347.63 667.36,-347.63 671.01,-346.75 671.01,-346.75 671.27,-346.69 671.77,-346.57 672.03,-346.52 672.03,-346.52 676.05,-345.67 676.05,-345.67 676.3,-345.62 676.82,-345.52 677.07,-345.47 677.07,-345.47 681.45,-344.66 681.45,-344.66 681.71,-344.61 682.22,-344.52 682.48,-344.48 682.48,-344.48 687.2,-343.71 687.2,-343.71 687.45,-343.67 687.97,-343.59 688.23,-343.55 688.23,-343.55 693.27,-342.84 693.27,-342.84 693.53,-342.8 694.04,-342.73 694.3,-342.7 694.3,-342.7 699.65,-342.03 699.65,-342.03 699.91,-342 700.43,-341.94 700.68,-341.91 700.68,-341.91 706.31,-341.3 706.31,-341.3 706.57,-341.27 707.09,-341.22 707.35,-341.2 707.35,-341.2 713.23,-340.65 713.23,-340.65 713.49,-340.62 714.01,-340.58 714.27,-340.56 714.27,-340.56 720.38,-340.07 720.38,-340.07 720.64,-340.05 721.16,-340.01 721.42,-340 721.42,-340 727.74,-339.57 727.74,-339.57 728,-339.56 728.52,-339.53 728.78,-339.51 728.78,-339.51 735.27,-339.16 735.27,-339.16 735.53,-339.14 736.05,-339.12 736.31,-339.11 736.31,-339.11 742.94,-338.82 742.94,-338.82 743.2,-338.81 743.72,-338.79 743.98,-338.78 743.98,-338.78 750.73,-338.57 750.73,-338.57 750.99,-338.56 751.51,-338.54 751.77,-338.54 751.77,-338.54 758.6,-338.39 758.6,-338.39 758.86,-338.39 759.38,-338.38 759.64,-338.38 759.64,-338.38 766.51,-338.31 766.51,-338.31 766.77,-338.3 767.29,-338.3 767.55,-338.3 767.55,-338.3 774.45,-338.3 774.45,-338.3 774.71,-338.3 775.23,-338.3 775.49,-338.31 775.49,-338.31 782.36,-338.38 782.36,-338.38 782.62,-338.38 783.14,-338.39 783.4,-338.39"/>
<text xml:space="preserve" text-anchor="middle" x="771" y="-371.5" font-family="Inter, Arial, sans-serif" font-size="12.00" fill="#854d0e">TRUST</text>
<text xml:space="preserve" text-anchor="middle" x="771" y="-357.25" font-family="Inter, Arial, sans-serif" font-size="12.00" fill="#854d0e">(Crucial Bridging Concept)</text>
</g>
<!-- TRUST&#45;&gt;BAIRD -->
<g id="edge15" class="edge">
<title>TRUST&#45;&gt;BAIRD</title>
<path fill="none" stroke="#64748b" stroke-width="1.5" d="M742.32,-338.22C722.81,-318.19 700.5,-295.3 700.5,-295.3 700.5,-295.3 700.5,-271.3 700.5,-271.3 700.5,-271.3 713.63,-255.18 727.35,-238.35"/>
<polygon fill="#64748b" stroke="#64748b" stroke-width="1.5" points="729.91,-240.75 733.51,-230.78 724.48,-236.33 729.91,-240.75"/>
<text xml:space="preserve" text-anchor="middle" x="752.25" y="-279.8" font-family="Inter, Arial, sans-serif" font-size="10.00"> Trust drives Delegation</text>
</g>
<!-- TRUST&#45;&gt;LIU -->
<g id="edge16" class="edge">
<title>TRUST&#45;&gt;LIU</title>
<path fill="none" stroke="#64748b" stroke-width="1.5" d="M789.97,-337.69C807.87,-309.41 832,-271.3 832,-271.3 832,-271.3 902,-228.3 902,-228.3 902,-228.3 913,-128.15 913,-128.15 913,-128.15 913,-116.15 913,-116.15 913,-116.15 871.56,-97.28 831.54,-79.06"/>
<polygon fill="#64748b" stroke="#64748b" stroke-width="1.5" points="833.22,-75.98 822.66,-75.02 830.31,-82.35 833.22,-75.98"/>
<text xml:space="preserve" text-anchor="middle" x="952.63" y="-196.23" font-family="Inter, Arial, sans-serif" font-size="10.00"> Trust = Willingness</text>
</g>
<!-- TRUST&#45;&gt;GUPTA -->
<g id="edge20" class="edge">
<title>TRUST&#45;&gt;GUPTA</title>
<path fill="none" stroke="#dc2626" stroke-width="2" stroke-dasharray="5,2" d="M859.24,-343.56C936.33,-322.51 1036,-295.3 1036,-295.3 1036,-295.3 1085,-271.3 1085,-271.3 1085,-271.3 1342.62,-237.25 1499.98,-216.45"/>
<polygon fill="#dc2626" stroke="#dc2626" stroke-width="2" points="1500.08,-219.97 1509.54,-215.19 1499.17,-213.03 1500.08,-219.97"/>
<text xml:space="preserve" text-anchor="middle" x="1197.5" y="-279.8" font-family="Inter, Arial, sans-serif" font-size="10.00" fill="#b91c1c"> Ali&#39;s Challenge: Equations fail if workers lack trust!</text>
</g>
<!-- MR&#45;&gt;GUPTA -->
<g id="edge17" class="edge">
<title>MR&#45;&gt;GUPTA</title>
<path fill="none" stroke="#64748b" stroke-width="1.5" d="M1610.75,-339.26C1649.13,-318.99 1694,-295.3 1694,-295.3 1694,-295.3 1694,-271.3 1694,-271.3 1694,-271.3 1676.23,-254.58 1657.99,-237.41"/>
<polygon fill="#64748b" stroke="#64748b" stroke-width="1.5" points="1660.41,-234.88 1650.73,-230.58 1655.61,-239.98 1660.41,-234.88"/>
<text xml:space="preserve" text-anchor="middle" x="1761.12" y="-285.8" font-family="Inter, Arial, sans-serif" font-size="10.00"> Analytical models often reflect</text>
<text xml:space="preserve" text-anchor="middle" x="1761.12" y="-273.8" font-family="Inter, Arial, sans-serif" font-size="10.00">Technological Imperative</text>
</g>
</g>
</svg>
